<svg version="1.1" id="Layer_1" xmlns="http://www.w3.org/2000/svg" xmlns:xlink="http://www.w3.org/1999/xlink" x="0px" y="0px"
	 width="100%" viewBox="0 0 512 512" enable-background="new 0 0 512 512" xml:space="preserve">
<path fill="#000000" opacity="1.000000" stroke="none" 
	d="
M329.000000,513.000000 
	C219.359970,513.000000 110.219933,513.000000 1.039949,513.000000 
	C1.039949,342.401611 1.039949,171.803207 1.039949,1.102403 
	C171.556702,1.102403 342.113495,1.102403 512.835144,1.102403 
	C512.835144,171.666534 512.835144,342.333252 512.835144,513.000000 
	C451.803192,513.000000 390.651581,513.000000 329.000000,513.000000 
M477.170197,277.012604 
	C477.170197,277.012604 477.238861,276.937469 477.015076,276.223145 
	C465.495575,253.129089 453.913513,230.065933 442.492096,206.923477 
	C438.731842,199.304291 434.390625,192.300049 427.542877,186.962540 
	C419.919769,181.020691 411.471191,177.163803 401.827820,177.075516 
	C372.887360,176.810547 343.943726,176.889603 315.277863,176.206970 
	C323.038361,163.440033 330.953979,150.763672 338.487976,137.864456 
	C341.804626,132.185928 345.882721,126.851662 345.162415,119.335670 
	C344.395416,111.332367 338.751648,105.019211 330.700989,105.007286 
	C314.535583,104.983330 298.370148,105.000099 282.204712,105.000061 
	C279.256439,105.000053 276.308197,105.000053 273.000000,105.000053 
	C273.000000,103.013725 273.000000,101.545128 273.000000,100.076530 
	C272.999969,82.577873 273.024963,65.079124 272.961121,47.580708 
	C272.954742,45.831867 272.689941,43.975449 272.060669,42.357330 
	C270.003326,37.067131 266.095764,33.681915 260.425140,33.065609 
	C253.411407,32.303326 247.296967,33.509491 242.871033,40.224751 
	C225.938919,65.914978 208.686478,91.394005 191.565094,116.959572 
	C184.862823,126.967400 178.054398,136.908096 171.557724,147.048141 
	C167.853622,152.829514 167.716202,159.132080 170.802322,165.285324 
	C173.806229,171.274612 178.940887,173.200668 185.477524,173.072495 
	C198.138351,172.824234 210.807495,172.999954 223.473190,172.999969 
	C229.260483,172.999985 235.047791,172.999969 240.834473,172.999969 
	C240.834473,174.683838 240.834473,175.841797 239.917908,176.999908 
	C198.123825,176.999908 156.329498,176.921036 114.535759,177.039917 
	C98.498787,177.085526 85.522736,183.864059 77.125397,197.438416 
	C70.521904,208.113007 65.268143,219.636093 59.622852,230.886658 
	C51.953831,246.170334 44.483166,261.553558 36.923737,276.928192 
	C36.923737,276.928192 36.889381,276.928192 36.332729,277.155853 
	C36.247803,277.733551 36.162876,278.311279 35.680080,279.534027 
	C34.786316,283.335541 33.162582,287.128815 33.119362,290.939972 
	C32.871838,312.767578 32.988987,334.599396 33.003277,356.429810 
	C33.018200,379.229736 54.774117,400.991638 77.571991,400.996429 
	C129.565033,401.007446 181.558090,400.999359 233.551132,401.000641 
	C240.992676,401.000824 240.996780,401.004913 240.999023,408.163696 
	C241.002579,419.495514 241.003830,430.827332 240.998535,442.159149 
	C240.995346,448.987885 240.988937,448.997955 234.228180,448.998413 
	C182.735062,449.001740 131.241943,448.985931 79.748848,449.015015 
	C70.583168,449.020203 64.987709,455.279633 65.000221,465.279541 
	C65.012115,474.778839 70.782875,480.986969 79.784737,480.988220 
	C197.935608,481.004700 316.086456,481.007324 434.237305,480.938080 
	C436.471466,480.936768 438.900635,480.425232 440.903625,479.457764 
	C447.852936,476.101105 450.945984,468.021515 448.748077,459.786835 
	C447.025177,453.331757 441.058411,449.007812 433.739532,449.006226 
	C382.246429,448.995178 330.753021,448.924683 279.260620,449.116547 
	C274.118286,449.135712 272.764252,447.646362 272.887817,442.644623 
	C273.229340,428.821381 273.033936,414.984833 273.970673,401.021759 
	C278.949677,400.977875 283.928650,400.933990 289.854614,400.953613 
	C338.666992,400.968842 387.479340,400.992615 436.291718,400.995575 
	C459.412201,400.996979 480.986633,379.319366 480.997009,356.101929 
	C481.006775,334.277893 481.151367,312.451874 480.862427,290.631653 
	C480.810425,286.704529 478.943726,282.801453 477.953339,278.285645 
	C477.672882,277.833466 477.392456,277.381287 477.170197,277.012604 
z"/>
<path fill="#23374D" opacity="1.000000" stroke="none" 
	d="
M273.050781,401.153564 
	C273.033936,414.984833 273.229340,428.821381 272.887817,442.644623 
	C272.764252,447.646362 274.118286,449.135712 279.260620,449.116547 
	C330.753021,448.924683 382.246429,448.995178 433.739532,449.006226 
	C441.058411,449.007812 447.025177,453.331757 448.748077,459.786835 
	C450.945984,468.021515 447.852936,476.101105 440.903625,479.457764 
	C438.900635,480.425232 436.471466,480.936768 434.237305,480.938080 
	C316.086456,481.007324 197.935608,481.004700 79.784737,480.988220 
	C70.782875,480.986969 65.012115,474.778839 65.000221,465.279541 
	C64.987709,455.279633 70.583168,449.020203 79.748848,449.015015 
	C131.241943,448.985931 182.735062,449.001740 234.228180,448.998413 
	C240.988937,448.997955 240.995346,448.987885 240.998535,442.159149 
	C241.003830,430.827332 241.002579,419.495514 240.999023,408.163696 
	C240.996780,401.004913 240.992676,401.000824 233.551132,401.000641 
	C181.558090,400.999359 129.565033,401.007446 77.571991,400.996429 
	C54.774117,400.991638 33.018200,379.229736 33.003277,356.429810 
	C32.988987,334.599396 32.871838,312.767578 33.119362,290.939972 
	C33.162582,287.128815 34.786316,283.335541 36.252823,279.074036 
	C36.846836,278.052094 36.868107,277.490143 36.889381,276.928192 
	C36.889381,276.928192 36.923737,276.928192 37.121098,277.290833 
	C41.953400,273.924286 47.227978,272.904572 53.144753,272.918030 
	C112.438675,273.052887 171.733032,272.993286 231.027267,273.007385 
	C239.684570,273.009460 248.341827,273.110748 256.999268,273.623657 
	C256.999451,316.249878 256.999451,358.418579 256.999451,401.153564 
	C262.805786,401.153564 267.928284,401.153564 273.050781,401.153564 
z"/>
<path fill="#BBDEFB" opacity="1.000000" stroke="none" 
	d="
M256.999115,273.166107 
	C248.341827,273.110748 239.684570,273.009460 231.027267,273.007385 
	C171.733032,272.993286 112.438675,273.052887 53.144753,272.918030 
	C47.227978,272.904572 41.953400,273.924286 37.122944,277.273804 
	C44.483166,261.553558 51.953831,246.170334 59.622852,230.886658 
	C65.268143,219.636093 70.521904,208.113007 77.125397,197.438416 
	C85.522736,183.864059 98.498787,177.085526 114.535759,177.039917 
	C156.329498,176.921036 198.123825,176.999908 240.438766,177.464478 
	C240.974319,198.722733 240.926743,219.516739 241.032043,240.309982 
	C241.079086,249.597260 247.544266,256.605286 256.193207,256.926178 
	C263.473999,257.196320 268.304840,253.395004 271.900543,247.358643 
	C285.004028,225.360855 298.195099,203.415146 311.402100,181.479279 
	C312.405487,179.812759 313.792603,178.377274 315.001343,176.834381 
	C343.943726,176.889603 372.887360,176.810547 401.827820,177.075516 
	C411.471191,177.163803 419.919769,181.020691 427.542877,186.962540 
	C434.390625,192.300049 438.731842,199.304291 442.492096,206.923477 
	C453.913513,230.065933 465.495575,253.129089 476.919678,276.977783 
	C472.050934,273.920258 466.634186,272.881622 460.553802,272.909729 
	C422.152100,273.087311 383.749207,272.982361 345.346680,273.007294 
	C326.564697,273.019470 307.782745,273.110535 288.536560,273.103149 
	C277.714569,273.082336 267.356842,273.124237 256.999115,273.166107 
z"/>
<path fill="#23374D" opacity="1.000000" stroke="none" 
	d="
M289.000793,273.165894 
	C307.782745,273.110535 326.564697,273.019470 345.346680,273.007294 
	C383.749207,272.982361 422.152100,273.087311 460.553802,272.909729 
	C466.634186,272.881622 472.050934,273.920258 477.031555,277.334961 
	C477.238861,276.937469 477.170197,277.012604 476.773376,277.130219 
	C476.889313,277.794312 477.402069,278.340790 477.914856,278.887268 
	C478.943726,282.801453 480.810425,286.704529 480.862427,290.631653 
	C481.151367,312.451874 481.006775,334.277893 480.997009,356.101929 
	C480.986633,379.319366 459.412201,400.996979 436.291718,400.995575 
	C387.479340,400.992615 338.666992,400.968842 289.415833,400.462280 
	C288.984955,357.702576 288.992859,315.434235 289.000793,273.165894 
M322.142181,330.975830 
	C319.773376,339.089844 321.737579,345.699097 327.798065,350.007538 
	C333.347870,353.952881 340.472748,354.015045 346.001434,350.166412 
	C351.446625,346.375824 354.101837,339.765076 352.655640,333.599182 
	C351.132202,327.103973 345.702332,322.048737 339.244995,321.113831 
	C332.426941,320.126678 326.637604,323.289459 322.142181,330.975830 
M413.020020,326.531525 
	C406.532349,320.413818 399.300293,319.280640 392.658478,323.341095 
	C386.658783,327.009064 383.654938,334.389252 385.547394,341.027313 
	C387.415497,347.579803 391.864502,351.611633 398.448425,352.755188 
	C405.120544,353.914062 410.639984,351.337067 414.328827,345.671692 
	C418.410980,339.402191 417.862183,333.101288 413.020020,326.531525 
z"/>
<path fill="#1089FF" opacity="1.000000" stroke="none" 
	d="
M315.139587,176.520676 
	C313.792603,178.377274 312.405487,179.812759 311.402100,181.479279 
	C298.195099,203.415146 285.004028,225.360855 271.900543,247.358643 
	C268.304840,253.395004 263.473999,257.196320 256.193207,256.926178 
	C247.544266,256.605286 241.079086,249.597260 241.032043,240.309982 
	C240.926743,219.516739 240.974319,198.722733 240.897049,177.464386 
	C240.834473,175.841797 240.834473,174.683838 240.834473,172.999969 
	C235.047791,172.999969 229.260483,172.999985 223.473190,172.999969 
	C210.807495,172.999954 198.138351,172.824234 185.477524,173.072495 
	C178.940887,173.200668 173.806229,171.274612 170.802322,165.285324 
	C167.716202,159.132080 167.853622,152.829514 171.557724,147.048141 
	C178.054398,136.908096 184.862823,126.967400 191.565094,116.959572 
	C208.686478,91.394005 225.938919,65.914978 242.871033,40.224751 
	C247.296967,33.509491 253.411407,32.303326 260.425140,33.065609 
	C266.095764,33.681915 270.003326,37.067131 272.060669,42.357330 
	C272.689941,43.975449 272.954742,45.831867 272.961121,47.580708 
	C273.024963,65.079124 272.999969,82.577873 273.000000,100.076530 
	C273.000000,101.545128 273.000000,103.013725 273.000000,105.000053 
	C276.308197,105.000053 279.256439,105.000053 282.204712,105.000061 
	C298.370148,105.000099 314.535583,104.983330 330.700989,105.007286 
	C338.751648,105.019211 344.395416,111.332367 345.162415,119.335670 
	C345.882721,126.851662 341.804626,132.185928 338.487976,137.864456 
	C330.953979,150.763672 323.038361,163.440033 315.139587,176.520676 
z"/>
<path fill="#1089FF" opacity="1.000000" stroke="none" 
	d="
M288.536560,273.103149 
	C288.992859,315.434235 288.984955,357.702576 288.942322,400.430511 
	C283.928650,400.933990 278.949677,400.977875 273.510742,401.087646 
	C267.928284,401.153564 262.805786,401.153564 256.999451,401.153564 
	C256.999451,358.418579 256.999451,316.249878 256.999268,273.623657 
	C267.356842,273.124237 277.714569,273.082336 288.536560,273.103149 
z"/>
<path fill="#BBDEFB" opacity="1.000000" stroke="none" 
	d="
M36.611053,277.042023 
	C36.868107,277.490143 36.846836,278.052094 36.451752,278.751526 
	C36.162876,278.311279 36.247803,277.733551 36.611053,277.042023 
z"/>
<path fill="#BBDEFB" opacity="1.000000" stroke="none" 
	d="
M477.934082,278.586456 
	C477.402069,278.340790 476.889313,277.794312 476.744293,277.088470 
	C477.392456,277.381287 477.672882,277.833466 477.934082,278.586456 
z"/>
<path fill="#EAEAEB" opacity="1.000000" stroke="none" 
	d="
M322.311951,330.623810 
	C326.637604,323.289459 332.426941,320.126678 339.244995,321.113831 
	C345.702332,322.048737 351.132202,327.103973 352.655640,333.599182 
	C354.101837,339.765076 351.446625,346.375824 346.001434,350.166412 
	C340.472748,354.015045 333.347870,353.952881 327.798065,350.007538 
	C321.737579,345.699097 319.773376,339.089844 322.311951,330.623810 
z"/>
<path fill="#EAEAEB" opacity="1.000000" stroke="none" 
	d="
M413.264160,326.808228 
	C417.862183,333.101288 418.410980,339.402191 414.328827,345.671692 
	C410.639984,351.337067 405.120544,353.914062 398.448425,352.755188 
	C391.864502,351.611633 387.415497,347.579803 385.547394,341.027313 
	C383.654938,334.389252 386.658783,327.009064 392.658478,323.341095 
	C399.300293,319.280640 406.532349,320.413818 413.264160,326.808228 
z"/>
</svg>